<svg width="20" height="20" viewBox="0 0 20 20" fill="none" xmlns="http://www.w3.org/2000/svg">
<path fill-rule="evenodd" clip-rule="evenodd" d="M16.1083 3.77501C16.2187 3.65654 16.2788 3.49983 16.276 3.33791C16.2731 3.17599 16.2075 3.02151 16.093 2.907C15.9785 2.79249 15.824 2.72689 15.6621 2.72404C15.5002 2.72118 15.3435 2.78128 15.225 2.89168L1.89167 16.225C1.83027 16.2822 1.78102 16.3512 1.74686 16.4279C1.7127 16.5046 1.69433 16.5873 1.69285 16.6712C1.69137 16.7552 1.7068 16.8385 1.73824 16.9163C1.76967 16.9942 1.81646 17.0649 1.87581 17.1242C1.93516 17.1836 2.00585 17.2303 2.08367 17.2618C2.1615 17.2932 2.24486 17.3087 2.32877 17.3072C2.41269 17.3057 2.49545 17.2873 2.57212 17.2532C2.64879 17.219 2.71779 17.1698 2.77501 17.1083L5.14751 14.7358C6.28667 15.2725 7.59751 15.625 9.00001 15.625C11.2367 15.625 13.2417 14.7275 14.6833 13.6208C15.4058 13.0667 16.0025 12.4483 16.4242 11.8408C16.8342 11.25 17.125 10.6025 17.125 10C17.125 9.39751 16.8333 8.75001 16.4242 8.15918C16.0025 7.55168 15.4058 6.93418 14.6842 6.37918C14.4653 6.21085 14.2342 6.0489 13.9908 5.89335L16.1083 3.77501ZM13.0833 6.80085L11.6075 8.27668C12.0054 8.87762 12.1833 9.59763 12.1112 10.3147C12.039 11.0318 11.7212 11.702 11.2116 12.2116C10.702 12.7212 10.0318 13.039 9.31473 13.1112C8.59762 13.1833 7.87761 13.0054 7.27667 12.6075L6.09584 13.7875C7.0171 14.1683 8.00317 14.3678 9.00001 14.375C10.9058 14.375 12.65 13.6058 13.9225 12.6292C14.5575 12.1417 15.0592 11.6142 15.3975 11.1283C15.7467 10.625 15.875 10.2308 15.875 10C15.875 9.76918 15.7467 9.37501 15.3975 8.87168C15.0592 8.38585 14.5575 7.85835 13.9225 7.37085C13.6614 7.17029 13.3822 6.98029 13.0833 6.80085ZM8.19084 11.6925C8.54072 11.8596 8.93381 11.9141 9.31596 11.8486C9.69812 11.783 10.0505 11.6006 10.3247 11.3264C10.5989 11.0522 10.7813 10.6998 10.8469 10.3176C10.9125 9.93548 10.8579 9.5424 10.6908 9.19251L8.19084 11.6925Z" fill="black"/>
<path d="M10 4.375C10.86 4.375 11.6867 4.50833 12.4592 4.73417C12.493 4.74426 12.5236 4.76302 12.5479 4.78858C12.5723 4.81414 12.5895 4.84562 12.5979 4.8799C12.6063 4.91417 12.6057 4.95005 12.5959 4.98399C12.5862 5.01792 12.5678 5.04872 12.5425 5.07333L11.8558 5.76083C11.8305 5.7864 11.799 5.80497 11.7644 5.81476C11.7298 5.82454 11.6933 5.8252 11.6583 5.81667C11.1144 5.69127 10.5582 5.62698 10 5.625C8.09417 5.625 6.35 6.39417 5.0775 7.37083C4.4425 7.85833 3.94083 8.38583 3.6025 8.87167C3.25333 9.375 3.125 9.76917 3.125 10C3.125 10.2308 3.25333 10.625 3.6025 11.1283C3.8975 11.5533 4.3175 12.0092 4.8425 12.4425C4.93917 12.5217 4.94833 12.6675 4.85917 12.7567L4.26917 13.3475C4.23303 13.3842 4.18443 13.4059 4.13302 13.4083C4.08161 13.4108 4.03115 13.3939 3.99167 13.3608C3.45501 12.9186 2.97897 12.4075 2.57583 11.8408C2.16667 11.25 1.875 10.6025 1.875 10C1.875 9.3975 2.16667 8.75 2.57583 8.15917C2.9975 7.55167 3.59417 6.93417 4.31583 6.37917C5.75833 5.2725 7.76333 4.375 10 4.375Z" fill="black"/>
<path d="M10 6.875C10.0989 6.875 10.1964 6.87944 10.2925 6.88833C10.4567 6.90417 10.5158 7.1 10.4 7.21667L9.38916 8.22667C9.12012 8.31994 8.87572 8.47302 8.67437 8.67437C8.47302 8.87573 8.31994 9.12012 8.22666 9.38917L7.21666 10.4C7.1 10.5167 6.90416 10.4567 6.88833 10.2925C6.84761 9.85933 6.89778 9.42244 7.03565 9.00978C7.17351 8.59713 7.39602 8.21781 7.68893 7.8961C7.98184 7.5744 8.33871 7.31741 8.73667 7.14157C9.13463 6.96574 9.56492 6.87495 10 6.875Z" fill="black"/>
</svg>
